<?xml version="1.0" standalone="no"?><!DOCTYPE svg PUBLIC "-//W3C//DTD SVG 1.1//EN" "http://www.w3.org/Graphics/SVG/1.1/DTD/svg11.dtd"><svg t="1650011181218" class="icon" viewBox="0 0 1024 1024" version="1.1" xmlns="http://www.w3.org/2000/svg" p-id="4813" xmlns:xlink="http://www.w3.org/1999/xlink" width="512" height="512"><defs><style type="text/css">@font-face { font-family: feedback-iconfont; src: url("//at.alicdn.com/t/font_1031158_u69w8yhxdu.woff2?t=1630033759944") format("woff2"), url("//at.alicdn.com/t/font_1031158_u69w8yhxdu.woff?t=1630033759944") format("woff"), url("//at.alicdn.com/t/font_1031158_u69w8yhxdu.ttf?t=1630033759944") format("truetype"); }
</style></defs><path d="M942.08 386.56a448 448 0 0 0-290.88-300.16c-84.16 92.16-115.84 248.32-70.08 405.44a472.96 472.96 0 0 0 172.48 254.08 326.08 326.08 0 0 0 104.64 50.24 448 448 0 0 0 83.84-409.6z m-437.76 128a523.84 523.84 0 0 1 60.48-448A448 448 0 0 0 123.52 288a576 576 0 0 1 181.12 283.2 576 576 0 0 1 0 336.32 448 448 0 0 0 490.56-49.28 424.32 424.32 0 0 1-88-48.64 552.96 552.96 0 0 1-202.88-295.36z m-416-150.08A446.08 446.08 0 0 0 234.88 864a503.36 503.36 0 0 0-7.04-268.8 507.2 507.2 0 0 0-138.56-231.04z" fill="#14B8A6" p-id="4814"></path></svg>